<svg id="Layer_2" data-name="Layer 2" xmlns="http://www.w3.org/2000/svg" viewBox="0 0 280 280"><defs><style>.cls-1{fill:#fff;}.cls-2{fill:none;stroke:#000;stroke-linecap:round;stroke-miterlimit:10;stroke-width:8px;}</style></defs><path class="cls-1" d="M223.9,186c-10.5,19.3-19.9,24.8-43.6,10.8l-.9.7a53.7,53.7,0,0,1-8,4.5l-1.3.8c-.9,26-7,33.6-28.9,33s-31.5-5.4-31.3-33.1l-1.1-.6a60.4,60.4,0,0,1-8-4.6l-.8-.4c-22.7,12.2-32.1,10.3-42.4-8.5-11.9-19.2-11.3-30.2,12.9-43.9a59.6,59.6,0,0,1-.2-9.1l-.5-.3c-22.1-13.7-25-22.8-13.8-41.2S76,69.2,99.9,83.2l.7-.6a69.8,69.8,0,0,1,8-4.6l1.4-.7c.8-26,6.9-33.8,28.8-33.1s31.5,5.4,31.4,33.1l1.2.6a59.6,59.6,0,0,1,7.9,4.7l.7.4c22.8-12.2,32.1-10.2,42.4,8.7.1,0,.1.1.2.2,11.7,19,11,29.9-13.1,43.6h0a59,59,0,0,1-.1,8.9h0C231.7,158.4,235.7,167.1,223.9,186ZM169,140a29,29,0,1,0-29,29A29,29,0,0,0,169,140Z"/><path class="cls-1" d="M140,111a29,29,0,1,1-29,29A29,29,0,0,1,140,111Z"/><path class="cls-2" d="M70.5,144.7c-24.2,13.7-24.8,24.7-12.9,43.9l.9,1.4"/><path class="cls-2" d="M100,197.1c-22.7,12.2-32.1,10.3-42.4-8.5a10.9,10.9,0,0,0-.8-1.5"/><path class="cls-2" d="M109.9,202.7c-.2,27.7,8.9,33.8,31.3,33.1h2"/><path class="cls-2" d="M170.1,202.8c-.9,26-7,33.6-28.9,33h-1.3"/><path class="cls-2" d="M180.3,196.8c23.7,14,33.1,8.5,43.6-10.8a11.4,11.4,0,0,0,1-1.9"/><path class="cls-2" d="M209.4,144.6c22.3,13.8,26.3,22.5,14.5,41.4l-.6,1.1"/><path class="cls-2" d="M222.4,91.7l-.9-1.6"/><path class="cls-2" d="M209.5,135.5c24.1-13.7,24.8-24.6,13.1-43.6"/><path class="cls-2" d="M180,83c22.8-12.2,32.1-10.2,42.4,8.7.1,0,.1.1.2.2l.6,1.1"/><path class="cls-2" d="M99.9,83.2C76,69.2,66.6,74.6,56,94.1l-.9,1.7"/><path class="cls-2" d="M69.8,135.3c-22.1-13.7-25-22.8-13.8-41.2l.8-1.2"/><path class="cls-2" d="M170.2,77.3c.1-27.7-9-33.7-31.4-33.1h-2"/><path class="cls-2" d="M110,77.3c.8-26,6.9-33.8,28.8-33.1h1.4"/><path class="cls-2" d="M70.5,144.7a59.6,59.6,0,0,1-.2-9.1"/><path class="cls-2" d="M108.8,202.1a60.4,60.4,0,0,1-8-4.6"/><path class="cls-2" d="M179.4,197.5a53.7,53.7,0,0,1-8,4.5"/><path class="cls-2" d="M209.5,135.6a59,59,0,0,1-.1,8.9"/><path class="cls-2" d="M100.6,82.6a69.8,69.8,0,0,1,8-4.6"/><path class="cls-2" d="M171.4,77.9a59.6,59.6,0,0,1,7.9,4.7"/><path class="cls-2" d="M169,140a29,29,0,1,1-29-29A29,29,0,0,1,169,140Z"/></svg>