<svg id="Layer_1" data-name="Layer 1" xmlns="http://www.w3.org/2000/svg" viewBox="0 0 200 200"><defs><style>.cls-1{fill:#fff;}.cls-2{fill:none;stroke:#000;stroke-linecap:round;stroke-linejoin:round;stroke-width:8px;}</style></defs><path class="cls-1" d="M183.3,145.8c-10.6,19.2-19.9,24.7-43.6,10.8l-1,.7a55.6,55.6,0,0,1-7.9,4.5l-1.4.8c-.8,26-6.9,33.6-28.8,33s-31.5-5.4-31.3-33.1l-1.2-.6a70.4,70.4,0,0,1-7.9-4.6l-.8-.4C36.6,169,27.3,167.1,17,148.4c-12-19.3-11.4-30.2,12.8-44-.2-3-.2-6-.1-9l-.6-.4c-22-13.6-25-22.7-13.7-41.1s20-25,43.8-10.9l.8-.7a69.5,69.5,0,0,1,7.9-4.5l1.4-.7C70.2,11,76.3,3.3,98.2,4s31.5,5.4,31.3,33.1l1.3.6a68,68,0,0,1,7.9,4.6l.6.5c22.9-12.2,32.2-10.3,42.5,8.6v.3c11.8,19,11,29.9-13,43.5v.2a43.1,43.1,0,0,1-.1,8.8v.2C191.1,118.1,195,126.9,183.3,145.8Zm-55-46a29,29,0,1,0-29,29h0A29,29,0,0,0,128.3,99.8Z"/><path class="cls-1" d="M99.3,70.8A29,29,0,1,1,70.4,99.9h0A29.1,29.1,0,0,1,99.3,70.8Z"/><path class="cls-2" d="M99.2,195.6h1.4c21.9.6,28-7,28.8-33l1.4-.8a55.6,55.6,0,0,0,7.9-4.5l1-.7c23.7,13.9,33,8.4,43.6-10.8l1-1.9-1.7,2.9a2.3,2.3,0,0,0,.7-1c11.7-18.9,7.8-27.7-14.5-41.4v-.2a43.1,43.1,0,0,0,.1-8.8v-.2c24-13.6,24.8-24.5,13-43.5v-.3l-1-1.5,1.6,2.9-.6-1.1v-.3c-10.3-18.9-19.6-20.8-42.5-8.6l-.6-.5a68,68,0,0,0-7.9-4.6l-1.3-.6C129.8,9.4,120.7,3.3,98.3,4h0c-21.9-.7-28,7-28.9,33.1l-1.4.7a70.7,70.7,0,0,0-8,4.5l-.8.7C35.4,28.9,26,34.4,15.4,53.9l-.9,1.7,1.6-3c-.2.5-.5.9-.7,1.3C4.1,72.3,7.1,81.4,29.1,95l.6.4c-.1,3-.1,6,.1,9C5.6,118.2,5,129.1,17,148.4l.9,1.4-1.7-2.9.8,1.5c10.3,18.7,19.6,20.6,42.4,8.5l.8.4a70.4,70.4,0,0,0,7.9,4.6l1.2.6c-.2,27.7,8.9,33.7,31.3,33.1h2"/><path class="cls-2" d="M128.3,99.8a29,29,0,1,1-29-29h0a29,29,0,0,1,29,29Z"/></svg>