<svg id="Layer_2" data-name="Layer 2" xmlns="http://www.w3.org/2000/svg" viewBox="0 0 199.8 200"><defs><style>.cls-1,.cls-2{fill:#fff;}.cls-1,.cls-3{stroke:#000;stroke-linecap:round;stroke-miterlimit:10;stroke-width:8px;}.cls-3{fill:none;}</style></defs><path class="cls-1" d="M128,115.7" transform="translate(-40.1 -40)"/><path class="cls-1" d="M170.2,128" transform="translate(-40.1 -40)"/><path class="cls-2" d="M235.9,142.2A14.8,14.8,0,0,1,221.2,157H171.7A14.7,14.7,0,0,0,157,171.7v49.6A14.8,14.8,0,0,1,142.2,236h-4.4A14.8,14.8,0,0,1,123,221.3V171.7A14.7,14.7,0,0,0,108.3,157H58.8a14.8,14.8,0,0,1-14.7-14.8v-4.4A14.8,14.8,0,0,1,58.8,123h49.5A14.7,14.7,0,0,0,123,108.3V58.8A14.8,14.8,0,0,1,137.8,44h4.4A14.8,14.8,0,0,1,157,58.8v49.5A14.7,14.7,0,0,0,171.7,123h49.5a14.8,14.8,0,0,1,14.7,14.8Z" transform="translate(-40.1 -40)"/><path class="cls-3" d="M189,123H171.7A14.7,14.7,0,0,1,157,108.3V58.8A14.8,14.8,0,0,0,142.2,44h-4.4A14.8,14.8,0,0,0,123,58.8v49.5A14.7,14.7,0,0,1,108.3,123H58.8a14.8,14.8,0,0,0-14.7,14.8v4.4A14.8,14.8,0,0,0,58.8,157h49.5A14.7,14.7,0,0,1,123,171.7v49.6A14.8,14.8,0,0,0,137.8,236h4.4A14.8,14.8,0,0,0,157,221.3V171.7A14.7,14.7,0,0,1,171.7,157h49.5a14.8,14.8,0,0,0,14.7-14.8v-4.4A14.8,14.8,0,0,0,221.2,123Z" transform="translate(-40.1 -40)"/></svg>