<svg id="Layer_2" data-name="Layer 2" xmlns="http://www.w3.org/2000/svg" viewBox="0 0 200 200"><defs><style>.cls-1,.cls-2{fill:none;stroke:#1d1d1b;stroke-miterlimit:10;stroke-width:6px;}.cls-2{stroke-linecap:round;}</style></defs><circle class="cls-1" cx="100" cy="118.9" r="79.3"/><path class="cls-2" d="M43.4,145.1a62,62,0,0,1-5.8-26.2,61.1,61.1,0,0,1,.6-8.6"/><path class="cls-2" d="M56.9,163.9a22.8,22.8,0,0,1-2.2-2.2"/><path class="cls-2" d="M133.6,171.4a62.2,62.2,0,0,1-33.6,9.9,61.4,61.4,0,0,1-33.9-10.1"/><path class="cls-2" d="M161.8,110.2a62.5,62.5,0,0,1-14.7,49.6"/><path class="cls-1" d="M111.4,35.5l5.3-5.2,5.7-5.8a1.7,1.7,0,0,0,0-2.6l-1.5-1.6a1.9,1.9,0,0,0-2.6,0l-9.8,9.8-1.3,1.3-11,11a1.9,1.9,0,0,1-2.6,0L92,40.9a2,2,0,0,1,0-2.7l12.4-12.3,9.7-9.7a2,2,0,0,0,0-2.7l-.8-.8-.7-.7a1.8,1.8,0,0,0-2.7,0l-9.7,9.7L98.9,23,87.8,34a1.9,1.9,0,0,1-2.6,0l-1.5-1.5a1.8,1.8,0,0,1,0-2.7L96,17.5l9.7-9.7a2,2,0,0,0,0-2.7l-1.5-1.5a2,2,0,0,0-2.7,0l-11,11L72.8,32.3A8.4,8.4,0,0,0,70,39.1a23.4,23.4,0,0,1-7.1,17.4L21.5,97.8,4.4,114.9a4.8,4.8,0,0,0,0,6.7A5.1,5.1,0,0,0,7.8,123a4.7,4.7,0,0,0,3.3-1.4l17.1-17.1L69.6,63.1a23.3,23.3,0,0,1,17.4-7,9,9,0,0,0,6.8-2.9l17.6-17.7"/><path class="cls-1" d="M171.1,91.5,130.7,51.2l-9.2-9.3L91,11.4a1.3,1.3,0,0,0-2.2.7l-.2,1.2a45.6,45.6,0,0,0,12.5,40.6l3.5,3.4,7.4,7.4A21.3,21.3,0,0,0,128.6,71l5.3-.3a6.3,6.3,0,0,1,4.9,1.9l25.5,25.5L189,122.7a4.5,4.5,0,0,0,6.6,0h0a4.5,4.5,0,0,0,0-6.6L171.1,91.5"/></svg>