<svg id="Layer_4" data-name="Layer 4" xmlns="http://www.w3.org/2000/svg" viewBox="0 0 200 200"><defs><style>.cls-1{fill:none;stroke:#000;stroke-miterlimit:10;stroke-width:8px;}</style></defs><path class="cls-1" d="M97,195.9c-4.3,0-7.6-1.2-9.8-3.6s-3.4-5.8-3.4-10.2v-4.6c0-4.5,1.1-8,3.4-10.3s5.5-3.5,9.8-3.5h2.9c4.3,0,7.7,1.2,10,3.5s3.5,5.8,3.5,10.3v4.6c0,4.4-1.2,7.7-3.5,10.2s-5.7,3.6-10,3.6Z"/><path class="cls-1" d="M94.3,102.6h0a23,23,0,0,1,8.8-3c5.3-.8,10-2.8,14.7-4.8a30.3,30.3,0,0,0,14-11.7c3.5-5.2,5.2-11.8,5.2-19.6a33.7,33.7,0,0,0-4.5-17.4,33.5,33.5,0,0,0-12.4-11.8,35.4,35.4,0,0,0-17.3-4.2,38,38,0,0,0-15.9,3.3,50,50,0,0,0-13,8.9c-4.9,5-7.8,10.4-13,11.4s-12.7-1.3-15.5-6.1c-3.7-6.5-2.3-11,1.1-15.6A78.3,78.3,0,0,1,75.8,9.8a64.7,64.7,0,0,1,27-5.7,61.1,61.1,0,0,1,30.6,7.8,60.2,60.2,0,0,1,21.8,21c5.3,8.8,8,19,8,30.6a58.7,58.7,0,0,1-3.9,22,51.1,51.1,0,0,1-11.1,17,59.3,59.3,0,0,1-16.8,11.6,52.6,52.6,0,0,1-9.6,3.6l-2.7.9-2.2.8a7.7,7.7,0,0,0-4.3,4h0a14.7,14.7,0,0,0-1.5,6.5v5.8a13,13,0,0,1-3.8,9.3,12.3,12.3,0,0,1-9.2,3.9,12.4,12.4,0,0,1-9.4-3.9,13.2,13.2,0,0,1-3.6-9.3V121.3a27.5,27.5,0,0,1,2.8-12h0A15.3,15.3,0,0,1,94.3,102.6Z"/></svg>