<?xml version="1.0" encoding="utf-8"?>
<!-- Generator: Adobe Illustrator 26.0.0, SVG Export Plug-In . SVG Version: 6.00 Build 0)  -->
<svg version="1.1" id="Capa_1" xmlns="http://www.w3.org/2000/svg" xmlns:xlink="http://www.w3.org/1999/xlink" x="0px" y="0px"
	 viewBox="0 0 487.2 487.2" style="enable-background:new 0 0 487.2 487.2;" xml:space="preserve">
<style type="text/css">
	.st0{fill:#07ABDB;}
</style>
<polygon class="st0" points="243.8,40.2 309.8,174.1 457.6,195.6 350.7,299.8 375.9,447 243.8,377.5 111.6,447 136.8,299.8 
	29.9,195.6 177.7,174.1 "/>
<g>
	<path d="M486.6,186.8c-1.6-4.9-5.8-8.4-10.9-9.2l-152-21.6L255.3,18.5c-2.3-4.6-7-7.5-12.1-7.5l0,0c-5.1,0-9.8,2.9-12.1,7.6
		l-67.5,137.9l-152,22.6c-5.1,0.8-9.3,4.3-10.9,9.2s-0.2,10.3,3.5,13.8L114.5,309L89,460.4c-0.9,5.1,1.2,10.2,5.4,13.2
		c2.3,1.7,5.1,2.6,7.9,2.6c2.2,0,4.3-0.5,6.3-1.6l135.7-71.9l136.1,71.1c2,1,4.1,1.5,6.2,1.5l0,0c7.4,0,13.5-6.1,13.5-13.5
		c0-1.1-0.1-2.1-0.4-3.1l-26.3-150.5L483,200.7C486.9,197.1,488.2,191.7,486.6,186.8z M349.6,293.9c-3.2,3.1-4.6,7.6-3.8,12
		l22.9,131.3l-118.2-61.7c-3.9-2.1-8.6-2-12.6,0l-117.8,62.4l22.1-131.5c0.7-4.4-0.7-8.8-3.9-11.9l-95.6-92.8l131.9-19.6
		c4.4-0.7,8.2-3.4,10.1-7.4L243.3,55l59.4,119.4c2,4,5.8,6.7,10.2,7.4l132,18.8L349.6,293.9z"/>
</g>
</svg>
