<svg id="Layer_1" data-name="Layer 1" xmlns="http://www.w3.org/2000/svg" viewBox="0 0 366.6 366.6"><defs><style>.cls-1{fill:#07abdb;}</style></defs><path class="cls-1" d="M323.9,258l2.5-2.2c14.8-12.6,33.1-28.4,34.8-67.6a6.5,6.5,0,0,0,5.4-6.4V167.7a6.4,6.4,0,0,0-6.4-6.4H240.9a6.4,6.4,0,0,0-6.4,6.4v14.1a6.5,6.5,0,0,0,5.4,6.4c1.7,39.2,20,54.9,34.8,67.6l2.5,2.2a5.4,5.4,0,0,1,1.5,1.5,7.7,7.7,0,0,1-1.5,10.8l-2.5,2.1c-14.8,12.7-33,28.3-34.8,67.3a6.5,6.5,0,0,0-5.4,6.4v14.1a6.4,6.4,0,0,0,6.4,6.4H360.2a6.4,6.4,0,0,0,6.4-6.4V346a6.4,6.4,0,0,0-5.4-6.3c-1.8-39-20.1-54.6-34.8-67.3l-2.5-2.1a7.1,7.1,0,0,1-1.5-1.5A7.7,7.7,0,0,1,323.9,258Zm-12.6-14.6a21.9,21.9,0,0,0-3.4,3.4,27,27,0,0,0,3.4,38.1l2.6,2.2c13,11.2,25.4,21.8,27.8,49.3H259.4c2.4-27.5,14.8-38.1,27.8-49.3l2.6-2.2a28.9,28.9,0,0,0,3.5-3.5,27,27,0,0,0-3.5-38l-2.6-2.2c-13-11.2-25.4-21.9-27.8-49.4h82.3c-2.4,27.5-14.8,38.2-27.8,49.4Z"/><path d="M181.8,75a15,15,0,0,0-15,15v91.2a15,15,0,0,0,7.5,13.6h0l49.1,28.3v-.3a149.1,149.1,0,0,1-6-15.7,162.7,162.7,0,0,1-6.1-25.7l-14.4-8.3V90A15,15,0,0,0,181.8,75Z"/><path d="M181.8,0C81.6,0,0,81.6,0,181.8S81.6,363.6,181.8,363.6a178.1,178.1,0,0,0,30.1-2.5V330.6a152.1,152.1,0,0,1-30.1,3C98.1,333.6,30,265.5,30,181.8S98.1,30,181.8,30c68.8,0,127.1,46,145.7,109h31C339.2,59.3,267.3,0,181.8,0Z"/></svg>