<svg id="Layer_1" data-name="Layer 1" xmlns="http://www.w3.org/2000/svg" viewBox="0 0 363.6 363.6"><defs><style>.cls-1{fill:#07abdb;}</style></defs><path class="cls-1" d="M361.5,159.6h0a14.7,14.7,0,0,0-20.3-5.2,15.9,15.9,0,0,0-3.9,3.4L229,291.4a6.3,6.3,0,0,1-8.9.9,4.9,4.9,0,0,1-1.2-1.3l-26-37.1a23.5,23.5,0,0,0-32.7-5.7,28.5,28.5,0,0,0-4.4,4.1h0a23.6,23.6,0,0,0-1.3,28.5l53.2,75.9a16.3,16.3,0,0,0,22.6,4,16.9,16.9,0,0,0,4-4l15.2-21.9L360.9,175.6A14.5,14.5,0,0,0,361.5,159.6Z" transform="translate(0 0)"/><path d="M196.8,90a15,15,0,0,0-30,0v91.2a15,15,0,0,0,7.5,13.6h0l70.9,40.9,19.1-23.6-67.5-38.9Z" transform="translate(0 0)"/><path d="M181.8,0C81.6,0,0,81.6,0,181.8S81.6,363.6,181.8,363.6H185l-21.8-31.1C88.2,323.3,30,259.2,30,181.8,30,98.1,98.1,30,181.8,30c68.1,0,125.9,45.1,145.1,107a36.7,36.7,0,0,1,24.6-7l4.8.6C334.1,55.2,264.3,0,181.8,0Z" transform="translate(0 0)"/></svg>