<svg id="Layer_1" data-name="Layer 1" xmlns="http://www.w3.org/2000/svg" viewBox="0 0 363.6 363.7"><defs><style>.cls-1{fill:#07abdb;}</style></defs><path class="cls-1" d="M280.2,236.6h0a43.9,43.9,0,0,1-43.8-43.8V177.1a44,44,0,0,1,43.8-43.8h0A43.9,43.9,0,0,1,324,177.1v15.7A43.8,43.8,0,0,1,280.2,236.6Z"/><path class="cls-1" d="M304.9,242.6a53.3,53.3,0,0,1-49.4,0,69.2,69.2,0,0,0-58.7,68.2v45.3a7.7,7.7,0,0,0,7.6,7.6H356.1a7.6,7.6,0,0,0,7.5-7.6V310.8A69.2,69.2,0,0,0,304.9,242.6Z"/><path d="M213.9,183l-17.1-9.9V90a15,15,0,0,0-30,0v91.2a15,15,0,0,0,7.5,13.6h0l49.9,28.8.6-.3A66.1,66.1,0,0,1,213.9,187Z"/><path d="M181.8,0C81.6,0,0,81.6,0,181.8c0,97.8,77.5,177.7,174.3,181.7V333.4C94.1,329.5,30,263,30,181.8,30,98.1,98.1,30,181.8,30a152,152,0,0,1,137.7,87.9c11.8,2.1,25.5,9,38.7,19.7C338.4,58.6,266.8,0,181.8,0Z"/></svg>