<svg id="Layer_4" data-name="Layer 4" xmlns="http://www.w3.org/2000/svg" viewBox="0 0 200 200"><defs><style>.cls-1,.cls-2{fill:none;stroke:#1d1d1b;stroke-miterlimit:10;stroke-width:6px;}.cls-1{stroke-linecap:round;}</style></defs><path class="cls-1" d="M35.4,32.4h0a93.3,93.3,0,0,0,31,5.4h67.2a93.3,93.3,0,0,0,31-5.4h0"/><path class="cls-2" d="M35.1,100A554.3,554.3,0,0,0,38,157.1a15.1,15.1,0,0,1-.7,6.7l-.6,1.4c-1.1,1.9-2.1,2.6-3.5,4.6l-.6,1A19.5,19.5,0,0,0,30,180.9v7.4a8.2,8.2,0,0,0,8.4,8.3h0c3.9-.1,5.1-2.5,8.6-2.5s4.4,2.6,8,2.7,5.5-2.7,9.4-2.7,4.6,2.6,8.3,2.7,5-2.2,8.3-2.6h.6c3.9-.1,5.3,2.6,9.4,2.6s5.1-2.6,8.9-2.5,5,2.6,8.8,2.6,5.2-2.8,9.2-2.8,5.5,2.8,9.4,2.7,4.6-2.6,8.3-2.7,5.5,2.7,9.4,2.7,4.4-2.6,8-2.7,4.7,2.4,8.6,2.5h0a8.2,8.2,0,0,0,8.4-8.3v-7.4a19.5,19.5,0,0,0-2.6-10.1l-.6-1c-1.4-2-2.4-2.7-3.5-4.6l-.6-1.4a15.1,15.1,0,0,1-.7-6.7,554.3,554.3,0,0,0,2.9-57.1h0A554.3,554.3,0,0,0,162,42.9a15.1,15.1,0,0,1,.7-6.7l.6-1.5c1.1-1.9,2.1-2.6,3.5-4.5l.6-1A19.5,19.5,0,0,0,170,19.1V11.6a8.3,8.3,0,0,0-8.4-8.3h0c-3.9.2-5.1,2.6-8.6,2.6s-4.4-2.6-8-2.7-5.5,2.7-9.4,2.7-4.6-2.6-8.3-2.7-5.3,2.7-9.4,2.7-5.3-2.8-9.2-2.8-4.9,2.6-8.8,2.6-5-2.5-8.9-2.5-5.5,2.7-9.4,2.6H81c-3.3-.4-4.8-2.7-8.3-2.6s-4.6,2.6-8.3,2.7S58.9,3.1,55,3.2s-4.4,2.6-8,2.7-4.7-2.4-8.6-2.6h0A8.3,8.3,0,0,0,30,11.6v7.5a19.5,19.5,0,0,0,2.6,10.1l.6,1c1.4,1.9,2.4,2.6,3.5,4.5l.6,1.5a15.1,15.1,0,0,1,.7,6.7A554.3,554.3,0,0,0,35.1,100Z"/><path class="cls-1" d="M35.4,167.6h0a93.4,93.4,0,0,1,31-5.5h67.2a93.4,93.4,0,0,1,31,5.5h0"/><path class="cls-1" d="M89.7,105.2a62.8,62.8,0,0,1-2.3-11.1c-.4-2.9-.2-6.7,2.9-18.5,1.4-5.5-.8-8.6-2.2-10.2S79,63.8,77,64.4c-7,2.1-17.9,8.4-21.5,20.4-4.6,15.4,5.2,31.7,17.1,37.3l1.8.8"/><path class="cls-1" d="M79.3,127.9a30.9,30.9,0,0,0,31.7,6.7c12.4-4.3,17.9-15.4,19.7-22.2.6-2.2,2.7-10.2-1.3-17.1a6.8,6.8,0,0,0-5.4-3.5c-2.5-.1-3.8,0-9,3.7s-8.1,5.9-10.3,7A29.7,29.7,0,0,1,93,105.4c-9.5,1.1-11.4.1-16.3,3.2-2.7,1.7-4.2,4-4.2,6.9C72.5,122.4,77,125.6,79.3,127.9Z"/><path class="cls-1" d="M91,76.2c10.1,8.4,15.5,9,21.1,9.1s12-2.7,24.7-.2a13.8,13.8,0,0,1,7.1,4c3.4,4,1.2,10.5-1,14.3a24.5,24.5,0,0,1-11.9,9.8"/><line class="cls-1" x1="75.4" y1="98.3" x2="78" y2="97.5"/><line class="cls-1" x1="64.3" y1="90" x2="67" y2="89.2"/><line class="cls-1" x1="75.8" y1="77.9" x2="78.4" y2="77.2"/><line class="cls-1" x1="106.1" y1="114.1" x2="104.4" y2="112.3"/><line class="cls-1" x1="89.9" y1="120.4" x2="88.1" y2="118.5"/><line class="cls-1" x1="121.5" y1="112.4" x2="119.8" y2="110.6"/><line class="cls-1" x1="104.1" y1="127.4" x2="102.3" y2="125.6"/><line class="cls-1" x1="99" y1="95.7" x2="99.9" y2="93"/><line class="cls-1" x1="133.1" y1="96" x2="134.1" y2="93.4"/></svg>