<svg id="Layer_1" data-name="Layer 1" xmlns="http://www.w3.org/2000/svg" viewBox="0 0 188.648 252.072"><path d="M81.462,153.244a7.207,7.207,0,0,1-5.515-2.6l-.428-.663c-2.048-4.445-2.941-11.411,4.439-19.337,6.136-6.588,16.659-12.332,28.641-16.732A233.293,233.293,0,0,0,120.119,89.2c-7.661-12.593-10.859-25.835-7.7-34.509a11.893,11.893,0,0,1,9.758-8.159l.395-.028c5.047,0,8.531,2.913,9.817,8.2,1.8,7.42-.955,20.037-6.064,33.8a76.514,76.514,0,0,0,7.058,9.156,94.519,94.519,0,0,0,7.633,8.187c12.934-1.793,24.683-1.625,31.864,1.086,7.31,2.759,8.96,7.389,9.058,10.789v.056c.036,4.423-2.165,7.77-6.044,9.184-7.8,2.848-22.5-2.286-36.845-15.264a155.846,155.846,0,0,0-26.509,6.668c-8.929,16.2-19,29.815-26.258,33.559a10.539,10.539,0,0,1-4.817,1.32Zm-1.031-6c.448.394,1.283.731,3.277-.295,5.476-2.826,13.167-12.819,20.575-25.372-8.492,3.669-15.718,8.049-20.228,12.889-4.15,4.459-5.341,8.646-3.624,12.778Zm66.147-36.531c11.749,9.377,22.678,12.71,27.386,10.987,1.109-.406,2.381-1.21,2.367-3.851-.028-.944-.163-3.686-5.434-5.674-5.565-2.1-14.354-2.471-24.319-1.462ZM123.858,94.8q-3.476,8.421-7.61,16.545a163.593,163.593,0,0,1,17.917-4.389q-2.618-2.725-5.028-5.638a81.484,81.484,0,0,1-5.279-6.518Zm-1.09-42.689a6.275,6.275,0,0,0-5.086,4.495c-2.014,5.531-.406,15.273,4.988,25.675,3.753-10.929,5.652-20.555,4.268-26.255-.8-3.313-2.461-3.879-4.17-3.915Z" transform="translate(-33.675 -1.964)"/><path d="M218.973,50.493,173.8,5.314a11.366,11.366,0,0,0-8.086-3.35H45.11A11.449,11.449,0,0,0,33.675,13.4V242.6A11.449,11.449,0,0,0,45.11,254.036H210.887A11.451,11.451,0,0,0,222.323,242.6V58.579A11.352,11.352,0,0,0,218.973,50.493ZM212.761,52.2H177.154a5.074,5.074,0,0,1-5.069-5.067V11.526ZM45.11,7.566h120.6a5.987,5.987,0,0,1,.773.075V47.135A10.683,10.683,0,0,0,177.154,57.8h39.491a5.457,5.457,0,0,1,.079.775V171.754H39.276V13.4A5.842,5.842,0,0,1,45.11,7.566ZM210.89,248.434H45.11a5.842,5.842,0,0,1-5.834-5.834V177.356H216.721V242.6A5.839,5.839,0,0,1,210.89,248.434Z" transform="translate(-33.675 -1.964)"/><path d="M94.648,191.217H82.4a2.8,2.8,0,0,0-2.8,2.8V232.2a2.8,2.8,0,1,0,5.6,0V219.48h9.45a10.762,10.762,0,0,0,10.75-10.75v-6.764a10.764,10.764,0,0,0-10.75-10.749ZM99.8,208.73a5.153,5.153,0,0,1-5.148,5.148H85.2v-17.06h9.45a5.155,5.155,0,0,1,5.148,5.148v6.764ZM128.983,235h-11.43a2.8,2.8,0,0,1-2.8-2.8v-38.18a2.8,2.8,0,0,1,2.8-2.8h11.433a11.578,11.578,0,0,1,11.567,11.567v20.645A11.584,11.584,0,0,1,128.983,235Zm-8.629-5.6h8.632a5.975,5.975,0,0,0,5.966-5.968V202.784a5.973,5.973,0,0,0-5.966-5.966h-8.632Zm53.249-38.18H153.4a2.8,2.8,0,0,0-2.8,2.8V232.2a2.8,2.8,0,1,0,5.6,0V215.909h10.427a2.8,2.8,0,0,0,0-5.6H156.2V196.821h17.4a2.8,2.8,0,0,0,0-5.6Z" transform="translate(-33.675 -1.964)"/></svg>