<svg id="Layer_1" data-name="Layer 1" xmlns="http://www.w3.org/2000/svg" xmlns:xlink="http://www.w3.org/1999/xlink" viewBox="0 0 4763 2275"><defs><style>.cls-1{fill:url(#linear-gradient);}.cls-2,.cls-3,.cls-4,.cls-5,.cls-6,.cls-7,.cls-8{fill-rule:evenodd;}.cls-2{fill:url(#linear-gradient-2);}.cls-3{fill:url(#linear-gradient-3);}.cls-4{fill:url(#linear-gradient-4);}.cls-5{fill:url(#linear-gradient-5);}.cls-6{fill:url(#linear-gradient-6);}.cls-7{fill:url(#linear-gradient-7);}.cls-8{fill:url(#linear-gradient-8);}</style><linearGradient id="linear-gradient" x1="-35.96" y1="2854.72" x2="4798.96" y2="63.28" gradientTransform="matrix(1, 0, 0, -1, 0, 2276)" gradientUnits="userSpaceOnUse"><stop offset="0" stop-color="#008bf9" stop-opacity="0.8"/><stop offset="1" stop-color="#008bf9" stop-opacity="0.5"/></linearGradient><linearGradient id="linear-gradient-2" x1="-165.51" y1="2630.33" x2="1578.24" y2="1623.57" gradientTransform="matrix(1, 0, 0, -1, 0, 2276)" gradientUnits="userSpaceOnUse"><stop offset="0" stop-color="#094976" stop-opacity="0.3"/><stop offset="1" stop-color="#094976" stop-opacity="0.5"/></linearGradient><linearGradient id="linear-gradient-3" x1="2268.05" y1="1878.01" x2="3755.57" y2="1019.19" gradientTransform="matrix(1, 0, 0, -1, 0, 2276)" gradientUnits="userSpaceOnUse"><stop offset="0" stop-color="#33a6f6" stop-opacity="0.5"/><stop offset="1" stop-color="#33a6f6" stop-opacity="0.7"/></linearGradient><linearGradient id="linear-gradient-4" x1="1352.14" y1="1941.3" x2="2980" y2="1001.44" gradientTransform="matrix(1, 0, 0, -1, 0, 2276)" gradientUnits="userSpaceOnUse"><stop offset="0" stop-color="#07abdb" stop-opacity="0.6"/><stop offset="1" stop-color="#07abdb" stop-opacity="0.8"/></linearGradient><linearGradient id="linear-gradient-5" x1="723.74" y1="2037.05" x2="2492.23" y2="1016.01" gradientTransform="matrix(1, 0, 0, -1, 0, 2276)" gradientUnits="userSpaceOnUse"><stop offset="0" stop-color="#0c82af" stop-opacity="0.5"/><stop offset="1" stop-color="#0c82af" stop-opacity="0.7"/></linearGradient><linearGradient id="linear-gradient-6" x1="418.24" y1="2125.03" x2="2122.15" y2="1141.29" gradientTransform="matrix(1, 0, 0, -1, 0, 2276)" gradientUnits="userSpaceOnUse"><stop offset="0" stop-color="#0b6592" stop-opacity="0.4"/><stop offset="1" stop-color="#0b6592" stop-opacity="0.6"/></linearGradient><linearGradient id="linear-gradient-7" x1="3897.3" y1="1172.33" x2="5053.78" y2="504.64" gradientTransform="matrix(1, 0, 0, -1, 0, 2276)" gradientUnits="userSpaceOnUse"><stop offset="0" stop-color="#665cf6" stop-opacity="0.3"/><stop offset="1" stop-color="#665cf6" stop-opacity="0.5"/></linearGradient><linearGradient id="linear-gradient-8" x1="3226.52" y1="1692.29" x2="4351.38" y2="1042.84" gradientTransform="matrix(1, 0, 0, -1, 0, 2276)" gradientUnits="userSpaceOnUse"><stop offset="0" stop-color="#5193ff" stop-opacity="0.4"/><stop offset="1" stop-color="#5193ff" stop-opacity="0.6"/></linearGradient></defs><rect class="cls-1" y="-641" width="4763" height="2916"/><path class="cls-2" d="M2325-641H0V1465.8C305.1-1086.3,1737.8,244.8,2325-641Z"/><path class="cls-3" d="M2499.8,2274.3c-586.3-828.2,2178.3-813.6,1899.6-2915H3812c103.5,1901.1-2690.7,1132.9-2224.5,2915"/><path class="cls-4" d="M3812.4-641H3449.9C3446.8,854.2,697.3-349.9,562.6,2275H1587.5C1121.2,492.4,3916.3,1261,3812.4-641Z"/><path class="cls-5" d="M3143.5-641C2687.3,366.2,156.7-770,0,2272.6v2.4H562.6C697.3-349.9,3446.8,854.2,3449.9-641Z"/><path class="cls-6" d="M2325-640.5C1737.8,245.3,305.1-1085.8,0,1466.3V2275C155.6-770.5,2687.8,367,3143.7-641H2325.3"/><path class="cls-7" d="M4763,339.4C4188.4,1371,2846.5,1870.5,3749.6,2275H4763Z"/><path class="cls-8" d="M4763,339.1V-640.3H4399.4c279.1,2102-2485.9,2087.3-1899.5,2915.6H3749.7C2844.4,1870.5,4188.7,1371.7,4763,339.1Z"/></svg>