<?xml version="1.0" encoding="utf-8"?>
<!-- Generator: Adobe Illustrator 26.0.0, SVG Export Plug-In . SVG Version: 6.00 Build 0)  -->
<svg version="1.1" id="Layer_3" xmlns="http://www.w3.org/2000/svg" xmlns:xlink="http://www.w3.org/1999/xlink" x="0px" y="0px"
	 viewBox="0 0 529.2 367.4" style="enable-background:new 0 0 529.2 367.4;" xml:space="preserve">
<style type="text/css">
	.st0{fill:#5F6060;}
	.st1{opacity:0.9;fill:#808384;enable-background:new    ;}
</style>
<g>
	<path class="st0" d="M265.1,274.5c-2,0-3.9-0.7-5.1-1.9c-1.1-1.1-1.6-2.6-1.6-4.6l0.4-77.5L227,221.7c-1.2,1.1-2.8,1.7-4.4,1.7
		c-1.9,0-3.6-0.8-4.9-2.1c-2.3-2.5-2.3-6.5,0-9l43.3-42.7c1.2-1.2,2.9-1.9,4.7-1.9s3.4,0.7,4.7,1.9l42.5,41.9
		c2.5,2.6,2.4,6.8-0.2,9.4c-1.2,1.2-2.9,1.9-4.6,1.9s-3.3-0.6-4.5-1.7L272.1,190l-0.4,78.1C271.7,274,266.7,274.5,265.1,274.5z"/>
</g>
<path class="st1" d="M344.7,117.6H184.5c-8.3,0-15.1,6.8-15.1,15.1v102c0,8.3,6.8,15.1,15.1,15.1h45.9l0,0l0,0
	c1.9,0,3.4-1.5,3.4-3.4s-1.5-3.4-3.4-3.4h-44.8c-5.2,0-9.4-4.2-9.4-9.4v-99.7c0-5.2,4.2-9.4,9.4-9.4h158c5.2,0,9.4,4.2,9.4,9.4v5.7
	v94c0,5.2-4.2,9.4-9.4,9.4h-43.8l0,0l0,0c-1.9,0-3.4,1.5-3.4,3.4s1.5,3.4,3.4,3.4l0,0h44.9c8.3,0,15.1-6.8,15.1-15.1v-102
	C359.7,124.4,353,117.7,344.7,117.6z"/>
</svg>
