<svg id="Layer_3" data-name="Layer 3" xmlns="http://www.w3.org/2000/svg" viewBox="0 0 529.18 367.44"><defs><style>.cls-1{opacity:0.75;}</style></defs><g class="cls-1"><path d="M331.11,116c-2.42-2.76-4.91-5.32-8.58-6.25a16.58,16.58,0,0,0-11.14,1.3c-6.87,3.32-11.43,10.45-15.84,16.37-2.76,3.71-88.25,119.59-90.31,120.11a7.92,7.92,0,0,1-4.6,0c-3.15-1.12-30.43-38.29-34.28-43.31-.47-.61-2.2-2.7-2.59-3.14-4.18-4.64-10-8.61-16.5-8a18.5,18.5,0,0,0-9.28,3.87,27,27,0,0,0-3,2.65c-1.5,1.55-90.41,121.15-92.1,124.77-1,2.12-1.58,4.79-.19,6.67,1.26,1.7,3.63,2.07,5.74,2.22,5.14.38,402,.25,414.05.3a81.18,81.18,0,0,0,13.05-.65,14.82,14.82,0,0,0,4.84-1.45,6.7,6.7,0,0,0,3.3-3.69c1.1-3.43-1.17-6.33-3-8.94S337,122.73,331.11,116Z"/><circle cx="85.25" cy="92.36" r="38.79" transform="translate(-18.94 22.06) rotate(-13.28)"/><path d="M487.22,0H42A42.08,42.08,0,0,0,0,42V325.48a42.08,42.08,0,0,0,42,42H487.22a42.08,42.08,0,0,0,42-42V42A42.08,42.08,0,0,0,487.22,0Zm23.14,60.94V322.38a26.16,26.16,0,0,1-26.08,26.08H44.9a26.16,26.16,0,0,1-26.08-26.08V45.06A26.16,26.16,0,0,1,44.9,19H484.28a26.16,26.16,0,0,1,26.08,26.08Z"/></g></svg>