<?xml version="1.0" encoding="utf-8"?>
<!-- Generator: Adobe Illustrator 26.0.0, SVG Export Plug-In . SVG Version: 6.00 Build 0)  -->
<svg version="1.1" id="Layer_3" xmlns="http://www.w3.org/2000/svg" xmlns:xlink="http://www.w3.org/1999/xlink" x="0px" y="0px"
	 viewBox="0 0 529.2 367.4" style="enable-background:new 0 0 529.2 367.4;" xml:space="preserve">
<style type="text/css">
	.st0{opacity:0.9;}
	.st1{fill:#808384;}
</style>
<g class="st0">
	<path class="st1" d="M304.6,142.9c-1.3-1.8-3.2-3-5.2-3.7c-2.2-0.5-4.7-0.2-6.7,0.8c-4.2,2-6.9,6.4-9.5,9.9
		c-1.7,2.2-53.2,71.9-54.4,72.3c-0.8,0.3-1.8,0.3-2.7,0c-1.8-0.7-18.4-23.1-20.6-26.1c-0.3-0.3-1.3-1.7-1.5-1.8
		c-2.5-2.8-6-5.2-9.9-4.9c-2,0.2-4,1-5.5,2.3c-0.7,0.5-1.2,1-1.8,1.5c-0.8,1-54.4,72.9-55.4,75.1c-0.8,1.2-0.8,2.7-0.2,4
		c0.8,0.8,2.2,1.3,3.5,1.3c3,0.2,241.9,0.2,249.1,0.2c2.7,0,5.2,0,7.9-0.3c1-0.2,2-0.3,2.8-0.8c1-0.5,1.7-1.3,2-2.2
		c0.7-2-0.7-3.8-1.8-5.4S308.1,147.1,304.6,142.9z"/>
	<circle class="st1" cx="156.7" cy="128.8" r="23.3"/>
	<path class="st1" d="M398.6,73.1h-268c-13.9,0-25.3,11.4-25.3,25.3V269c0,13.9,11.4,25.3,25.3,25.3h268c13.9,0,25.3-11.4,25.3-25.3
		V98.4C423.7,84.5,412.5,73.3,398.6,73.1z M412.5,109.9v157.3c0,8.7-7,15.7-15.7,15.7H132.4c-8.7,0-15.7-7-15.7-15.7V100.4
		c0-8.7,7-15.7,15.7-15.7h264.3c8.7,0,15.7,7,15.7,15.7V109.9z"/>
</g>
</svg>
