<svg xmlns="http://www.w3.org/2000/svg" width="256" height="256" xml:space="preserve"><g><g style="stroke:none;stroke-width:0;stroke-dasharray:none;stroke-linecap:butt;stroke-linejoin:miter;stroke-miterlimit:10;fill:none;fill-rule:nonzero;opacity:1"><path d="M28.384 54.013c-.975 0-1.617-.521-1.969-.927l-.153-.237c-.731-1.587-1.05-4.074 1.585-6.904 2.191-2.352 5.948-4.403 10.226-5.974a83.239 83.239 0 0 0 4.113-8.825c-2.735-4.496-3.877-9.224-2.75-12.321.598-1.644 1.835-2.678 3.484-2.913l.141-.01c1.802 0 3.046 1.04 3.505 2.927.643 2.649-.341 7.154-2.165 12.069a27.293 27.293 0 0 0 2.52 3.269 33.734 33.734 0 0 0 2.725 2.923c4.618-.64 8.813-.58 11.377.388 2.61.985 3.199 2.638 3.234 3.852v.02c.013 1.579-.773 2.774-2.158 3.279-2.785 1.017-8.033-.816-13.155-5.45a55.658 55.658 0 0 0-9.465 2.381c-3.188 5.785-6.785 10.645-9.375 11.982-.661.34-1.232.471-1.72.471zm-.368-2.143c.16.141.458.261 1.17-.105 1.955-1.009 4.701-4.577 7.346-9.059-3.032 1.31-5.612 2.874-7.222 4.602-1.482 1.592-1.907 3.087-1.294 4.562zm23.617-13.043c4.195 3.348 8.097 4.538 9.778 3.923.396-.145.85-.432.845-1.375-.01-.337-.058-1.316-1.94-2.026-1.987-.749-5.125-.882-8.683-.522zm-8.112-5.681a81.95 81.95 0 0 1-2.717 5.907 58.452 58.452 0 0 1 6.397-1.567 36.782 36.782 0 0 1-1.795-2.013 29.105 29.105 0 0 1-1.885-2.327zm-.389-15.242c-.882.147-1.477.673-1.816 1.605-.719 1.975-.145 5.453 1.781 9.167 1.34-3.902 2.018-7.339 1.524-9.374-.287-1.183-.879-1.385-1.489-1.398z" style="stroke:none;stroke-width:1;stroke-dasharray:none;stroke-linecap:butt;stroke-linejoin:miter;stroke-miterlimit:10;fill:#000;fill-rule:nonzero;opacity:1" transform="translate(1.964 1.964) scale(2.8008)"/><path d="M77.481 17.327 61.351 1.196A4.058 4.058 0 0 0 58.464 0H15.405a4.088 4.088 0 0 0-4.083 4.083v81.834A4.088 4.088 0 0 0 15.405 90h59.189a4.088 4.088 0 0 0 4.083-4.083V20.214a4.051 4.051 0 0 0-1.196-2.887zm-2.218.61H62.55c-.998 0-1.81-.812-1.81-1.809V3.414l14.523 14.523zM15.405 2h43.059c.094 0 .185.015.276.027v14.101c0 2.1 1.709 3.809 3.81 3.809h14.1c.013.092.028.184.028.277v40.408H13.322V4.083c0-1.148.935-2.083 2.083-2.083zm59.19 86h-59.19a2.086 2.086 0 0 1-2.083-2.083V62.622h63.355v23.295A2.085 2.085 0 0 1 74.595 88z" style="stroke:none;stroke-width:1;stroke-dasharray:none;stroke-linecap:butt;stroke-linejoin:miter;stroke-miterlimit:10;fill:#000;fill-rule:nonzero;opacity:1" transform="translate(1.964 1.964) scale(2.8008)"/><path d="M33.092 67.571h-4.374a1 1 0 0 0-1 1v13.632a1 1 0 1 0 2 0v-4.541h3.374a3.842 3.842 0 0 0 3.838-3.838v-2.415a3.843 3.843 0 0 0-3.838-3.838zm1.838 6.253a1.84 1.84 0 0 1-1.838 1.838h-3.374v-6.091h3.374a1.84 1.84 0 0 1 1.838 1.838v2.415zM45.351 83.203H41.27a1 1 0 0 1-1-1V68.571a1 1 0 0 1 1-1h4.082a4.134 4.134 0 0 1 4.13 4.13v7.371a4.136 4.136 0 0 1-4.131 4.131zm-3.081-2h3.082c1.174 0 2.13-.956 2.13-2.131v-7.371c0-1.175-.956-2.13-2.13-2.13H42.27v11.632zM61.282 67.571H54.07a1 1 0 0 0-1 1v13.632a1 1 0 1 0 2 0v-5.816h3.723a1 1 0 1 0 0-2H55.07v-4.815h6.212a1 1 0 1 0 0-2.001z" style="stroke:none;stroke-width:1;stroke-dasharray:none;stroke-linecap:butt;stroke-linejoin:miter;stroke-miterlimit:10;fill:#000;fill-rule:nonzero;opacity:1" transform="translate(1.964 1.964) scale(2.8008)"/></g></g></svg>