<?xml version="1.0" encoding="utf-8"?>
<!-- Generator: Adobe Illustrator 26.0.0, SVG Export Plug-In . SVG Version: 6.00 Build 0)  -->
<svg version="1.1" id="Layer_3" xmlns="http://www.w3.org/2000/svg" xmlns:xlink="http://www.w3.org/1999/xlink" x="0px" y="0px"
	 viewBox="0 0 529.2 367.4" style="enable-background:new 0 0 529.2 367.4;" xml:space="preserve">
<style type="text/css">
	.st0{opacity:0.9;}
	.st1{fill:#808384;}
</style>
<g class="st0">
	<path class="st1" d="M288.5,141.9c-0.8-1.1-1.9-1.8-3.1-2.2c-1.3-0.3-2.8-0.1-4,0.5c-2.5,1.2-4.1,3.8-5.7,5.9
		c-1,1.3-31.8,43-32.5,43.2c-0.5,0.2-1.1,0.2-1.6,0c-1.1-0.4-11-13.8-12.3-15.6c-0.2-0.2-0.8-1-0.9-1.1c-1.5-1.7-3.6-3.1-5.9-2.9
		c-1.2,0.1-2.4,0.6-3.3,1.4c-0.4,0.3-0.7,0.6-1.1,0.9c-0.5,0.6-32.5,43.6-33.1,44.9c-0.5,0.7-0.5,1.6-0.1,2.4
		c0.5,0.5,1.3,0.8,2.1,0.8c1.8,0.1,144.6,0.1,148.9,0.1c1.6,0,3.1,0,4.7-0.2c0.6-0.1,1.2-0.2,1.7-0.5c0.6-0.3,1-0.8,1.2-1.3
		c0.4-1.2-0.4-2.3-1.1-3.2S290.6,144.4,288.5,141.9z"/>
	<circle class="st1" cx="200.1" cy="133.5" r="13.9"/>
	<path class="st1" d="M344.7,100.2H184.5c-8.3,0-15.1,6.8-15.1,15.1v102c0,8.3,6.8,15.1,15.1,15.1h160.2c8.3,0,15.1-6.8,15.1-15.1
		v-102C359.7,107,353,100.3,344.7,100.2z M353,122.2v94c0,5.2-4.2,9.4-9.4,9.4h-158c-5.2,0-9.4-4.2-9.4-9.4v-99.7
		c0-5.2,4.2-9.4,9.4-9.4h158c5.2,0,9.4,4.2,9.4,9.4V122.2z"/>
</g>
<g>
	<g class="st0">
		<path class="st1" d="M188.2,242.3c0.4,0,0.8,0.2,1.1,0.5s0.4,0.7,0.4,1.2v12.1c0,1.7-0.4,3.2-1.1,4.6c-0.7,1.3-1.8,2.4-3.1,3.2
			c-1.3,0.8-2.8,1.1-4.5,1.1s-3.2-0.4-4.5-1.1c-1.3-0.8-2.3-1.8-3.1-3.2c-0.8-1.3-1.1-2.9-1.1-4.6V244c0-0.4,0.2-0.8,0.5-1.2
			c0.3-0.3,0.7-0.5,1.2-0.5c0.4,0,0.8,0.2,1.1,0.5s0.5,0.7,0.5,1.2v12.1c0,1.1,0.3,2.1,0.8,3c0.5,0.8,1.2,1.5,2,2s1.7,0.7,2.7,0.7
			s1.9-0.2,2.8-0.7c0.9-0.5,1.5-1.1,2.1-2s0.8-1.8,0.8-3V244c0-0.4,0.1-0.8,0.4-1.2C187.3,242.5,187.7,242.3,188.2,242.3z"/>
		<path class="st1" d="M203,247.7c1.5,0,2.8,0.4,4,1.1c1.2,0.7,2.1,1.8,2.8,3.1s1,2.8,1,4.5s-0.3,3.2-1,4.5s-1.6,2.3-2.8,3.1
			c-1.2,0.7-2.5,1.1-3.9,1.1c-0.8,0-1.6-0.1-2.3-0.4s-1.4-0.6-1.9-1c-0.6-0.4-1-0.9-1.4-1.3c-0.4-0.5-0.6-0.9-0.7-1.3l0.9-0.4v8.9
			c0,0.5-0.2,0.9-0.5,1.2c-0.3,0.3-0.7,0.5-1.1,0.5c-0.5,0-0.9-0.2-1.2-0.5s-0.5-0.7-0.5-1.2v-20c0-0.4,0.2-0.8,0.5-1.2
			c0.3-0.3,0.7-0.5,1.2-0.5c0.4,0,0.8,0.2,1.1,0.5s0.5,0.7,0.5,1.2v2.2l-0.5-0.3c0.1-0.4,0.3-0.8,0.6-1.3c0.3-0.4,0.8-0.8,1.3-1.2
			s1.1-0.7,1.8-0.9C201.6,247.8,202.3,247.7,203,247.7z M202.7,250.6c-1,0-1.9,0.3-2.7,0.8s-1.3,1.2-1.8,2s-0.6,1.8-0.6,2.9
			s0.2,2.1,0.6,3c0.4,0.9,1,1.6,1.8,2.1s1.6,0.8,2.7,0.8c1,0,1.9-0.2,2.6-0.8c0.7-0.5,1.3-1.2,1.8-2.1c0.4-0.9,0.6-1.9,0.6-3
			s-0.2-2.1-0.6-2.9s-1-1.5-1.8-2C204.5,250.9,203.7,250.6,202.7,250.6z"/>
		<path class="st1" d="M226.9,247.9c0.4,0,0.8,0.2,1.1,0.5s0.5,0.7,0.5,1.2v8.4c0,2.2-0.6,4-1.9,5.2s-3,1.9-5.2,1.9s-4-0.6-5.2-1.9
			c-1.2-1.2-1.8-3-1.8-5.2v-8.4c0-0.5,0.2-0.9,0.5-1.2s0.7-0.5,1.2-0.5c0.4,0,0.8,0.2,1.1,0.5s0.5,0.7,0.5,1.2v8.4
			c0,1.4,0.3,2.4,1,3.1s1.6,1,2.9,1c1.3,0,2.2-0.3,2.9-1s1-1.7,1-3.1v-8.4c0-0.5,0.2-0.9,0.5-1.2
			C226.1,248.1,226.5,247.9,226.9,247.9z"/>
		<path class="st1" d="M232,262.2c-0.2-0.3-0.3-0.6-0.3-1s0.2-0.7,0.7-1c0.3-0.2,0.6-0.3,0.9-0.2c0.3,0,0.6,0.2,0.9,0.5
			c0.6,0.7,1.3,1.2,2,1.6s1.6,0.6,2.7,0.6c0.4,0,0.9-0.1,1.3-0.2c0.4-0.1,0.8-0.3,1.2-0.6c0.3-0.3,0.5-0.8,0.5-1.4
			c0-0.5-0.2-1-0.5-1.3s-0.8-0.6-1.3-0.8c-0.6-0.2-1.2-0.4-1.8-0.6c-0.7-0.2-1.4-0.4-2-0.6c-0.7-0.2-1.3-0.5-1.9-0.9
			c-0.6-0.4-1-0.9-1.4-1.5c-0.3-0.6-0.5-1.3-0.5-2.2c0-1,0.3-1.9,0.8-2.6c0.6-0.7,1.3-1.3,2.2-1.7s1.9-0.6,2.9-0.6
			c0.6,0,1.3,0.1,2,0.2c0.7,0.2,1.3,0.4,2,0.8c0.6,0.3,1.2,0.8,1.7,1.3c0.2,0.3,0.3,0.6,0.4,1c0,0.4-0.1,0.7-0.5,1.1
			c-0.3,0.2-0.6,0.3-0.9,0.3c-0.4,0-0.7-0.2-0.9-0.4c-0.4-0.5-0.9-0.9-1.6-1.2c-0.6-0.3-1.4-0.4-2.2-0.4c-0.4,0-0.8,0.1-1.3,0.2
			c-0.4,0.1-0.8,0.3-1.1,0.6s-0.4,0.7-0.4,1.3c0,0.5,0.2,1,0.5,1.3s0.8,0.6,1.4,0.8c0.6,0.2,1.2,0.4,1.9,0.6c0.7,0.2,1.3,0.4,2,0.6
			c0.7,0.2,1.2,0.5,1.8,0.9c0.5,0.4,0.9,0.9,1.3,1.4c0.3,0.6,0.5,1.3,0.5,2.2c0,1-0.3,1.9-0.9,2.7c-0.6,0.7-1.4,1.3-2.3,1.7
			c-0.9,0.4-1.9,0.6-2.9,0.6c-1.2,0-2.4-0.2-3.6-0.7C233.9,264,232.8,263.2,232,262.2z M238.4,246.8c-0.2,0-0.4-0.1-0.6-0.2
			s-0.3-0.4-0.3-0.7c0-0.2,0.1-0.4,0.2-0.5l1.9-3.2c0.1-0.3,0.4-0.5,0.6-0.8c0.3-0.2,0.6-0.3,0.9-0.3c0.5,0,0.9,0.1,1.2,0.4
			s0.4,0.6,0.4,1c0,0.2-0.1,0.4-0.2,0.6c-0.1,0.2-0.2,0.4-0.4,0.6l-2.4,2.7c-0.2,0.2-0.4,0.3-0.6,0.4
			C238.8,246.7,238.6,246.8,238.4,246.8z"/>
		<path class="st1" d="M255.7,247.6c1.2,0,2.2,0.1,3.1,0.4s1.6,0.6,2.1,1s0.8,0.9,0.8,1.5c0,0.4-0.1,0.7-0.3,1
			c-0.2,0.3-0.5,0.5-1,0.5c-0.3,0-0.6,0-0.8-0.1c-0.2-0.1-0.4-0.2-0.5-0.4c-0.2-0.2-0.4-0.3-0.6-0.4c-0.2-0.1-0.6-0.3-1.1-0.3
			c-0.5-0.1-0.9-0.1-1.2-0.1c-1.1,0-2.1,0.3-2.9,0.8c-0.8,0.5-1.5,1.2-1.9,2.1c-0.5,0.9-0.7,1.9-0.7,3s0.2,2.1,0.7,3
			s1.1,1.6,1.9,2.1c0.8,0.5,1.7,0.8,2.8,0.8c0.6,0,1.1,0,1.6-0.1c0.4-0.1,0.8-0.2,1-0.4c0.3-0.2,0.6-0.4,0.8-0.6
			c0.2-0.2,0.5-0.3,0.9-0.3c0.5,0,0.8,0.1,1.1,0.4c0.2,0.3,0.4,0.6,0.4,1.1s-0.3,0.9-0.8,1.4c-0.6,0.4-1.3,0.8-2.3,1.1
			c-0.9,0.3-2,0.4-3.1,0.4c-1.6,0-3.1-0.4-4.3-1.2c-1.2-0.8-2.2-1.8-2.8-3.1c-0.7-1.3-1-2.8-1-4.5c0-1.7,0.4-3.2,1.1-4.5
			c0.7-1.3,1.7-2.4,2.9-3.1C252.7,247.9,254.1,247.6,255.7,247.6z M255.7,246.8c-0.2,0-0.4-0.1-0.6-0.2c-0.2-0.2-0.3-0.4-0.3-0.7
			c0-0.2,0.1-0.4,0.2-0.5l1.9-3.2c0.1-0.3,0.4-0.5,0.6-0.8c0.3-0.2,0.6-0.3,0.9-0.3c0.5,0,0.9,0.1,1.2,0.4c0.3,0.3,0.4,0.6,0.4,1
			c0,0.2-0.1,0.4-0.2,0.6c-0.1,0.2-0.2,0.4-0.4,0.6l-2.4,2.7c-0.2,0.2-0.4,0.3-0.6,0.4C256.1,246.7,255.9,246.8,255.7,246.8z"/>
		<path class="st1" d="M289.9,256.4c0,1.7-0.4,3.2-1.1,4.5s-1.8,2.3-3,3.1s-2.7,1.1-4.3,1.1c-1.6,0-3-0.4-4.3-1.1s-2.3-1.8-3.1-3.1
			c-0.8-1.3-1.1-2.8-1.1-4.5c0-1.7,0.4-3.2,1.1-4.6c0.8-1.3,1.8-2.3,3.1-3.1c1.3-0.8,2.7-1.1,4.3-1.1c1.6,0,3,0.4,4.3,1.1
			c1.3,0.8,2.3,1.8,3,3.1C289.5,253.1,289.9,254.6,289.9,256.4z M286.7,256.4c0-1.2-0.2-2.2-0.7-3.1c-0.5-0.9-1.1-1.5-1.9-2
			s-1.7-0.7-2.7-0.7s-1.9,0.2-2.7,0.7c-0.8,0.5-1.5,1.2-1.9,2c-0.5,0.9-0.7,1.9-0.7,3.1c0,1.1,0.2,2.1,0.7,3s1.1,1.6,1.9,2
			c0.8,0.5,1.7,0.7,2.7,0.7s1.9-0.2,2.7-0.7c0.8-0.5,1.4-1.2,1.9-2C286.5,258.5,286.7,257.5,286.7,256.4z"/>
		<path class="st1" d="M302,247.6c1.5,0,2.8,0.4,4,1.1c1.2,0.7,2.1,1.8,2.8,3.1c0.7,1.3,1,2.8,1,4.5c0,1.7-0.3,3.2-1,4.5
			s-1.6,2.4-2.8,3.1c-1.2,0.8-2.5,1.1-3.9,1.1c-0.8,0-1.6-0.1-2.3-0.4s-1.4-0.6-1.9-1c-0.6-0.4-1-0.9-1.4-1.3
			c-0.4-0.5-0.6-0.9-0.7-1.3l0.9-0.4v2.8c0,0.4-0.2,0.8-0.5,1.2c-0.3,0.3-0.7,0.5-1.1,0.5c-0.5,0-0.9-0.2-1.2-0.5s-0.5-0.7-0.5-1.2
			v-20.7c0-0.4,0.2-0.8,0.5-1.2c0.3-0.3,0.7-0.5,1.2-0.5c0.4,0,0.8,0.2,1.1,0.5c0.3,0.3,0.5,0.7,0.5,1.2v9l-0.5-0.3
			c0.1-0.4,0.3-0.8,0.6-1.3c0.3-0.4,0.8-0.9,1.3-1.3c0.5-0.4,1.1-0.7,1.8-1S301.3,247.6,302,247.6z M301.7,250.5
			c-1,0-1.9,0.3-2.7,0.8c-0.8,0.5-1.3,1.2-1.8,2c-0.4,0.9-0.6,1.9-0.6,3c0,1.1,0.2,2.1,0.6,3s1,1.6,1.8,2.1s1.6,0.8,2.7,0.8
			c1,0,1.9-0.3,2.6-0.8s1.3-1.2,1.8-2.1c0.4-0.9,0.6-1.9,0.6-3s-0.2-2.1-0.6-3s-1-1.5-1.8-2C303.5,250.8,302.7,250.5,301.7,250.5z"
			/>
		<path class="st1" d="M315,264.8c-0.5,0-0.9-0.2-1.2-0.5s-0.5-0.7-0.5-1.2v-13.6c0-0.5,0.2-0.9,0.5-1.2s0.7-0.5,1.2-0.5
			c0.4,0,0.8,0.2,1.1,0.5c0.3,0.3,0.5,0.7,0.5,1.2v3.6l-0.3-1.4c0.2-0.6,0.4-1.2,0.8-1.7s0.8-1,1.3-1.3c0.5-0.4,1-0.7,1.6-0.9
			s1.2-0.3,1.9-0.3c0.6,0,1,0.1,1.4,0.4s0.6,0.7,0.6,1.1c0,0.6-0.1,1-0.4,1.3s-0.6,0.4-1,0.4c-0.3,0-0.6-0.1-0.9-0.2
			c-0.3-0.1-0.7-0.2-1.1-0.2s-0.9,0.1-1.4,0.4c-0.5,0.2-0.9,0.6-1.3,1c-0.4,0.5-0.7,1-0.9,1.6c-0.2,0.6-0.3,1.3-0.3,2.1v7.7
			c0,0.5-0.2,0.9-0.5,1.2S315.5,264.8,315,264.8z"/>
		<path class="st1" d="M340.6,247.7c0.5,0,0.9,0.2,1.2,0.5c0.3,0.3,0.4,0.7,0.4,1.2v13.8c0,0.5-0.1,0.9-0.4,1.2s-0.7,0.5-1.2,0.5
			s-0.9-0.2-1.2-0.5s-0.4-0.7-0.4-1.2v-2.3l0.7,0.1c0,0.4-0.2,0.8-0.5,1.3s-0.7,0.9-1.3,1.4s-1.2,0.8-1.9,1.1
			c-0.7,0.3-1.5,0.4-2.3,0.4c-1.5,0-2.8-0.4-4-1.1c-1.2-0.8-2.1-1.8-2.8-3.1c-0.7-1.3-1-2.8-1-4.5c0-1.7,0.3-3.2,1-4.6
			c0.7-1.3,1.6-2.3,2.8-3.1c1.2-0.7,2.4-1.1,3.9-1.1c0.9,0,1.8,0.1,2.5,0.4c0.8,0.3,1.5,0.7,2,1.2c0.6,0.5,1,1,1.3,1.5
			s0.5,1,0.5,1.5l-1,0.1v-2.9c0-0.4,0.1-0.8,0.4-1.2C339.7,247.9,340.1,247.7,340.6,247.7z M334,262.2c1,0,1.9-0.3,2.7-0.8
			c0.8-0.5,1.4-1.2,1.8-2.1s0.6-1.9,0.6-3s-0.2-2.1-0.6-3s-1-1.6-1.8-2.1s-1.7-0.8-2.7-0.8s-1.9,0.3-2.6,0.8
			c-0.8,0.5-1.4,1.2-1.8,2.1s-0.7,1.9-0.7,3s0.2,2.1,0.7,3c0.4,0.9,1,1.6,1.8,2.1C332.2,261.9,333.1,262.2,334,262.2z"/>
		<path class="st1" d="M357.3,261.8c0.4,0,0.8,0.1,1.1,0.4c0.3,0.3,0.4,0.6,0.4,1.1c0,0.4-0.1,0.8-0.4,1s-0.6,0.4-1.1,0.4H347
			c-0.5,0-0.8-0.2-1.1-0.5c-0.3-0.3-0.4-0.7-0.4-1s0.1-0.5,0.1-0.7c0.1-0.2,0.2-0.4,0.4-0.7l8.6-11.3v0.4h-7.1
			c-0.4,0-0.8-0.1-1.1-0.4s-0.4-0.6-0.4-1.1c0-0.4,0.1-0.8,0.4-1s0.6-0.4,1.1-0.4h9.8c0.4,0,0.8,0.2,1.1,0.5
			c0.3,0.3,0.4,0.7,0.4,1.2c0,0.2,0,0.3-0.1,0.5s-0.2,0.4-0.4,0.6l-8.4,11.2l-0.1-0.2L357.3,261.8L357.3,261.8z"/>
	</g>
</g>
</svg>
